HIERARCHY
ROOT bottle4_body
{
	OFFSET 0.000000 0.000000 0.000000
	CHANNELS 6 Xposition Yposition Zposition Yrotation Xrotation Zrotation
	End Site
	{
		OFFSET 0.000000 0.000000 0.000000
	}
}
MOTION
Frames: 120
Frame Time: 0.008333334
1.538108 5.860053 4.051454 78.341060 -6.988220 -19.413210 
1.550910 5.853737 4.057157 79.031770 -6.383575 -19.024510 
1.564290 5.846153 4.063384 79.616610 -5.524323 -18.421660 
1.578905 5.837780 4.070978 80.273160 -4.735626 -17.834230 
1.593592 5.828748 4.079402 80.790410 -3.859680 -17.150480 
1.608697 5.819540 4.088234 81.327220 -3.073700 -16.557400 
1.623735 5.810528 4.097263 81.628060 -2.293976 -15.993410 
1.638924 5.801048 4.106823 81.938700 -1.550079 -15.413120 
1.654191 5.791212 4.116951 82.163520 -0.768463 -14.908840 
1.669407 5.781414 4.126679 82.381550 -0.091492 -14.393620 
1.685177 5.772097 4.136666 82.649380 0.613497 -13.896330 
1.700038 5.762083 4.146632 82.801110 1.223411 -13.514470 
1.714922 5.752782 4.156613 83.054370 1.853786 -13.032070 
1.729593 5.743115 4.167312 83.242570 2.386156 -12.514980 
1.743885 5.733600 4.177914 83.511670 2.936691 -12.000270 
1.757772 5.724177 4.189042 83.719380 3.412945 -11.478700 
1.770812 5.714885 4.200337 83.807420 3.913785 -10.988340 
1.783430 5.706814 4.210156 83.974310 4.326217 -10.489440 
1.795620 5.699034 4.218880 84.208070 4.691691 -10.174010 
1.806044 5.691601 4.226624 84.395340 5.154115 -9.664429 
1.815645 5.684522 4.231971 84.652380 5.568964 -9.310364 
1.823139 5.678324 4.235651 84.867890 5.978985 -8.940063 
1.829651 5.673393 4.236934 85.187470 6.140681 -8.598633 
1.833629 5.669829 4.235628 85.407670 6.360247 -8.529694 
1.836139 5.667161 4.233148 85.696370 6.507138 -8.401031 
1.836228 5.665863 4.229660 85.918450 6.515419 -8.367828 
1.835243 5.665083 4.225458 86.199010 6.407871 -8.309570 
1.833194 5.665195 4.220803 86.365910 6.228833 -8.343079 
1.831229 5.665018 4.215616 86.578730 5.926765 -8.429596 
1.829591 5.664485 4.210433 86.648750 5.714437 -8.586334 
1.828501 5.664162 4.204990 86.732520 5.552856 -8.729675 
1.827907 5.664026 4.199070 86.830820 5.218483 -8.945709 
1.827275 5.664085 4.193536 86.815320 5.077271 -9.114380 
1.827020 5.663614 4.188929 86.913540 4.779404 -9.275391 
1.826588 5.663473 4.184932 86.921210 4.619624 -9.418915 
1.825558 5.663908 4.180619 86.955410 4.449118 -9.481293 
1.824835 5.664713 4.176838 86.995220 4.211582 -9.647064 
1.824095 5.665595 4.173949 87.039690 4.061087 -9.737366 
1.823910 5.667227 4.171371 87.088030 4.013731 -9.854218 
1.825069 5.669022 4.169370 87.230610 3.994160 -9.909363 
1.827903 5.671263 4.168499 87.296840 4.064038 -9.936371 
1.832474 5.673975 4.167655 87.439550 4.221050 -10.017270 
1.838682 5.677051 4.166584 87.461610 4.572808 -10.027070 
1.846639 5.680540 4.165118 87.545780 4.851274 -10.096370 
1.855492 5.684259 4.163178 87.602940 5.306538 -10.244450 
1.864619 5.688641 4.160506 87.608440 5.666868 -10.382110 
1.874006 5.693012 4.158731 87.677640 6.045146 -10.468020 
1.883824 5.698107 4.157266 87.856410 6.322072 -10.626370 
1.893845 5.704479 4.155758 87.994920 6.636938 -10.656070 
1.904779 5.711131 4.154668 88.107840 7.042831 -10.808840 
1.916724 5.717717 4.153082 88.212750 7.458369 -10.898350 
1.928752 5.724562 4.151733 88.345810 7.910997 -10.942870 
1.941477 5.731593 4.149855 88.390310 8.296854 -10.987730 
1.955221 5.738400 4.148682 88.532420 8.671112 -11.041960 
1.969013 5.744718 4.147866 88.720380 8.873860 -10.884060 
1.982628 5.751694 4.145334 88.780010 9.335518 -10.966340 
1.995970 5.758262 4.143716 88.808980 9.610950 -10.904690 
2.008842 5.764889 4.141381 88.762860 10.015690 -10.920410 
2.021312 5.771634 4.138967 88.749040 10.168280 -10.899320 
2.033461 5.777416 4.137542 88.706030 10.407330 -10.814850 
2.045567 5.783382 4.134573 88.784750 10.652520 -10.777590 
2.057156 5.789407 4.132517 88.807700 11.019790 -10.714390 
2.068142 5.793822 4.131145 88.845870 11.198840 -10.523410 
2.078581 5.798463 4.128990 88.826580 11.486990 -10.413480 
2.088221 5.802079 4.126980 88.892510 11.668050 -10.371460 
2.096662 5.805201 4.124575 88.886050 11.920140 -10.323210 
2.104180 5.807673 4.122323 88.982860 12.050170 -10.237000 
2.109805 5.809689 4.119654 88.990620 12.253760 -10.194150 
2.114050 5.811227 4.117046 89.145210 12.356240 -10.260960 
2.116578 5.812115 4.115500 89.272190 12.444560 -10.268400 
2.117837 5.813039 4.113364 89.453640 12.513220 -10.315640 
2.117732 5.813516 4.111423 89.607870 12.552030 -10.336270 
2.116692 5.813688 4.110034 89.771110 12.554060 -10.392490 
2.114612 5.813427 4.109097 89.947380 12.569550 -10.454100 
2.111268 5.812749 4.108834 90.129190 12.598170 -10.507660 
2.106467 5.811824 4.108760 90.378310 12.618380 -10.587190 
2.100811 5.810262 4.110191 90.724300 12.653120 -10.618040 
2.093308 5.808915 4.112350 91.057230 12.611870 -10.680180 
2.085007 5.807689 4.114685 91.524510 12.678300 -10.774290 
2.076056 5.807164 4.119092 91.959340 12.675820 -10.729680 
2.067029 5.807140 4.124554 92.397790 12.725320 -10.729710 
2.058472 5.807274 4.131562 92.950530 12.779250 -10.527100 
2.049417 5.808077 4.138991 93.302930 12.776120 -10.352450 
2.041084 5.808794 4.146717 93.676800 12.789320 -10.071810 
2.032954 5.810048 4.154587 93.980440 12.768450 -9.785248 
2.025962 5.811452 4.163265 94.389130 12.809940 -9.504517 
2.019384 5.813481 4.171189 94.828970 12.752540 -9.276825 
2.013238 5.815576 4.178250 95.229700 12.777140 -9.080414 
2.007795 5.817650 4.184184 95.617750 12.783780 -8.891052 
2.002972 5.820030 4.188760 96.080920 12.790270 -8.821838 
1.999666 5.822346 4.191777 96.402520 12.922580 -8.817047 
1.997845 5.824920 4.193830 96.753090 12.985780 -8.813965 
1.997380 5.827330 4.195428 97.013020 13.082040 -8.738159 
1.997950 5.829916 4.196437 97.274310 13.196360 -8.712250 
1.999092 5.831941 4.197001 97.446680 13.390660 -8.580566 
2.000378 5.833786 4.197301 97.652000 13.660320 -8.488342 
2.001375 5.834886 4.197808 97.874170 13.848430 -8.426544 
2.001735 5.835378 4.198331 98.133040 14.005260 -8.350769 
2.001327 5.835355 4.199158 98.391950 14.145940 -8.239746 
2.000799 5.834659 4.200384 98.734320 14.285170 -8.115784 
1.999759 5.833119 4.201656 99.213120 14.399240 -7.931519 
1.998657 5.830965 4.203619 99.691890 14.472130 -7.747711 
1.998207 5.827734 4.206670 100.301600 14.610050 -7.546570 
1.998340 5.823323 4.210681 100.869200 14.667910 -7.236542 
1.999624 5.818218 4.217009 101.552700 14.736450 -6.788361 
2.002722 5.812453 4.225107 102.243600 14.868760 -6.434784 
2.006365 5.807160 4.232955 102.805100 15.050660 -6.023926 
2.010017 5.803054 4.240462 103.229000 15.122630 -5.728027 
2.012952 5.800084 4.247229 103.513500 15.245460 -5.574890 
2.014114 5.798182 4.251757 103.529400 15.354260 -5.370178 
2.015024 5.796051 4.256036 103.387900 15.526500 -5.299072 
2.015640 5.792686 4.259999 103.311800 15.630850 -5.198395 
2.015080 5.787814 4.263564 103.163600 15.876920 -5.181335 
2.012909 5.781302 4.266274 103.109200 15.999040 -5.303223 
2.008118 5.773142 4.268668 103.061800 16.108410 -5.378204 
2.000065 5.763995 4.270865 103.086000 16.013850 -5.550964 
1.988986 5.753636 4.272705 103.130400 15.945780 -5.761841 
1.975139 5.741582 4.274622 103.335800 15.640740 -5.916840 
1.958202 5.729009 4.276371 103.559400 15.292230 -6.137329 
1.938850 5.715058 4.278510 103.762100 14.728840 -6.373108 
